<svg xmlns="http://www.w3.org/2000/svg" width="20.414" height="22.414" viewBox="0 0 20.414 22.414">
  <path id="Path_20" data-name="Path 20" d="M14,11H8m2,4H8m8-8H8m12,3.5V6.8a7.453,7.453,0,0,0-.327-3.162,3,3,0,0,0-1.311-1.311A7.453,7.453,0,0,0,15.2,2H8.8a7.453,7.453,0,0,0-3.162.327A3,3,0,0,0,4.327,3.638,7.453,7.453,0,0,0,4,6.8V17.2a7.453,7.453,0,0,0,.327,3.162,3,3,0,0,0,1.311,1.311A7.453,7.453,0,0,0,8.8,22h2.7M22,22l-1.5-1.5m1-2.5A3.5,3.5,0,1,1,18,14.5,3.5,3.5,0,0,1,21.5,18Z" transform="translate(-3 -1)" fill="none" stroke="#000" stroke-linecap="round" stroke-linejoin="round" stroke-width="2"/>
</svg>
